<svg width="122" height="44" viewBox="0 0 122 44" fill="none" xmlns="http://www.w3.org/2000/svg">
<path fill-rule="evenodd" clip-rule="evenodd" d="M22 34C28.6274 34 34 28.6274 34 22C34 15.3726 28.6274 10 22 10C15.3726 10 10 15.3726 10 22C10 28.6274 15.3726 34 22 34ZM22 44C34.1503 44 44 34.1503 44 22C44 9.84974 34.1503 0 22 0C9.84974 0 0 9.84974 0 22C0 34.1503 9.84974 44 22 44Z" fill="#FF0000"/>
<path d="M54.268 9.80005H66.112C68.632 9.80005 70.684 10.448 72.268 11.7441C73.852 13.016 74.644 14.672 74.644 16.7121C74.644 17.8161 74.368 18.8241 73.816 19.7361C73.264 20.6481 72.508 21.4041 71.548 22.0041C72.748 22.5801 73.708 23.372 74.428 24.38C75.148 25.364 75.508 26.4681 75.508 27.6921C75.508 29.8761 74.692 31.6401 73.06 32.9841C71.452 34.3281 69.328 35 66.688 35H54.268V9.80005ZM65.788 14.12H59.488V20.096H65.788C66.892 20.096 67.78 19.832 68.452 19.304C69.124 18.752 69.46 18.0201 69.46 17.1081C69.46 16.196 69.124 15.476 68.452 14.948C67.78 14.396 66.892 14.12 65.788 14.12ZM66.292 30.68C67.492 30.68 68.452 30.3921 69.172 29.8161C69.892 29.2161 70.252 28.412 70.252 27.404C70.252 26.444 69.892 25.6641 69.172 25.064C68.452 24.464 67.492 24.1641 66.292 24.1641H59.488V30.68H66.292Z" fill="black"/>
<path d="M79.1586 9.80005H91.0026C93.5226 9.80005 95.5746 10.448 97.1586 11.7441C98.7426 13.016 99.5346 14.672 99.5346 16.7121C99.5346 17.8161 99.2586 18.8241 98.7066 19.7361C98.1546 20.6481 97.3986 21.4041 96.4386 22.0041C97.6386 22.5801 98.5986 23.372 99.3186 24.38C100.039 25.364 100.399 26.4681 100.399 27.6921C100.399 29.8761 99.5826 31.6401 97.9506 32.9841C96.3426 34.3281 94.2186 35 91.5786 35H79.1586V9.80005ZM90.6786 14.12H84.3786V20.096H90.6786C91.7826 20.096 92.6706 19.832 93.3426 19.304C94.0146 18.752 94.3506 18.0201 94.3506 17.1081C94.3506 16.196 94.0146 15.476 93.3426 14.948C92.6706 14.396 91.7826 14.12 90.6786 14.12ZM91.1826 30.68C92.3826 30.68 93.3426 30.3921 94.0626 29.8161C94.7826 29.2161 95.1426 28.412 95.1426 27.404C95.1426 26.444 94.7826 25.6641 94.0626 25.064C93.3426 24.464 92.3826 24.1641 91.1826 24.1641H84.3786V30.68H91.1826Z" fill="black"/>
<path d="M120.537 32.66C119.385 33.5961 118.197 34.2801 116.973 34.7121C115.773 35.1441 114.429 35.3601 112.941 35.3601C111.525 35.3601 110.193 35.108 108.945 34.604C107.721 34.1 106.653 33.4161 105.741 32.5521C104.853 31.6881 104.145 30.6681 103.617 29.4921C103.113 28.292 102.861 27.0081 102.861 25.64C102.861 24.2961 103.101 23.0361 103.581 21.8601C104.085 20.6601 104.769 19.628 105.633 18.764C106.497 17.876 107.517 17.18 108.693 16.6761C109.893 16.172 111.165 15.92 112.509 15.92C113.829 15.92 115.053 16.1841 116.181 16.7121C117.333 17.2161 118.317 17.9121 119.133 18.8C119.973 19.688 120.621 20.7561 121.077 22.0041C121.557 23.2281 121.797 24.56 121.797 26V27.2961H107.829C108.165 28.4721 108.813 29.42 109.773 30.14C110.733 30.86 111.861 31.2201 113.157 31.2201C113.973 31.2201 114.741 31.0881 115.461 30.8241C116.181 30.5601 116.793 30.188 117.297 29.708L120.537 32.66ZM112.401 19.988C111.273 19.988 110.301 20.3361 109.485 21.0321C108.669 21.7041 108.105 22.616 107.793 23.7681H116.973C116.661 22.6641 116.085 21.764 115.245 21.068C114.429 20.348 113.481 19.988 112.401 19.988Z" fill="black"/>
</svg>
