<svg width="156" height="53" viewBox="0 0 156 53" fill="none" xmlns="http://www.w3.org/2000/svg">
<g style="mix-blend-mode:luminosity">
<rect x="0.75" y="0.75" width="154.5" height="51.5" rx="6.25" stroke="#747272" stroke-width="1.5"/>
<path d="M64.862 29.6C64.862 30.452 64.736 31.226 64.484 31.922C64.232 32.606 63.878 33.188 63.422 33.668C62.966 34.148 62.408 34.52 61.748 34.784C61.088 35.048 60.356 35.18 59.552 35.18C57.944 35.18 56.66 34.682 55.7 33.686C54.74 32.678 54.26 31.316 54.26 29.6V22.4H56.42V29.6C56.42 30.704 56.708 31.586 57.284 32.246C57.86 32.906 58.622 33.236 59.57 33.236C60.518 33.236 61.274 32.906 61.838 32.246C62.414 31.586 62.702 30.704 62.702 29.6V22.4H64.862V29.6ZM66.6512 33.956L67.6052 32.588C68.1932 32.96 68.7092 33.224 69.1532 33.38C69.5972 33.536 70.0472 33.614 70.5032 33.614C71.0432 33.614 71.4812 33.506 71.8172 33.29C72.1532 33.062 72.3212 32.768 72.3212 32.408C72.3212 32.132 72.2192 31.916 72.0152 31.76C71.8232 31.592 71.5112 31.466 71.0792 31.382L69.4772 31.112C68.6132 30.956 67.9592 30.674 67.5152 30.266C67.0832 29.846 66.8672 29.3 66.8672 28.628C66.8672 27.788 67.1852 27.116 67.8212 26.612C68.4692 26.096 69.3152 25.838 70.3592 25.838C70.9832 25.838 71.5832 25.928 72.1592 26.108C72.7472 26.276 73.3292 26.546 73.9052 26.918L72.9512 28.25C72.4832 27.95 72.0272 27.734 71.5832 27.602C71.1392 27.458 70.6892 27.386 70.2332 27.386C69.7652 27.386 69.3872 27.482 69.0992 27.674C68.8232 27.854 68.6852 28.112 68.6852 28.448C68.6852 28.736 68.7752 28.952 68.9552 29.096C69.1472 29.24 69.4832 29.354 69.9632 29.438L71.5472 29.726C72.4472 29.894 73.1132 30.188 73.5452 30.608C73.9892 31.028 74.2112 31.574 74.2112 32.246C74.2112 32.654 74.1152 33.038 73.9232 33.398C73.7432 33.758 73.4852 34.07 73.1492 34.334C72.8252 34.598 72.4352 34.808 71.9792 34.964C71.5352 35.108 71.0552 35.18 70.5392 35.18C69.7592 35.18 69.0332 35.078 68.3612 34.874C67.7012 34.658 67.1312 34.352 66.6512 33.956ZM83.9203 33.848C83.3683 34.304 82.8043 34.64 82.2283 34.856C81.6643 35.072 81.0343 35.18 80.3383 35.18C79.7023 35.18 79.1023 35.06 78.5383 34.82C77.9743 34.58 77.4883 34.25 77.0803 33.83C76.6723 33.41 76.3483 32.912 76.1083 32.336C75.8683 31.76 75.7483 31.148 75.7483 30.5C75.7483 29.84 75.8563 29.228 76.0723 28.664C76.3003 28.088 76.6063 27.596 76.9903 27.188C77.3863 26.768 77.8543 26.438 78.3943 26.198C78.9343 25.958 79.5163 25.838 80.1403 25.838C80.7523 25.838 81.3163 25.958 81.8323 26.198C82.3603 26.426 82.8103 26.744 83.1823 27.152C83.5663 27.56 83.8663 28.052 84.0823 28.628C84.2983 29.192 84.4063 29.81 84.4063 30.482V30.986H77.7463C77.8423 31.694 78.1423 32.282 78.6463 32.75C79.1623 33.218 79.7623 33.452 80.4463 33.452C80.8663 33.452 81.2623 33.38 81.6343 33.236C82.0183 33.08 82.3363 32.87 82.5883 32.606L83.9203 33.848ZM80.1223 27.494C79.5223 27.494 79.0123 27.698 78.5923 28.106C78.1723 28.514 77.9023 29.06 77.7823 29.744H82.4803C82.3603 29.084 82.0843 28.544 81.6523 28.124C81.2323 27.704 80.7223 27.494 80.1223 27.494ZM94.9337 35H92.6837L89.9297 22.4H92.1257L93.9977 31.634L96.6977 22.4H98.7497L101.45 31.634L103.322 22.4H105.446L102.692 35H100.442L97.6877 25.442L94.9337 35ZM114.401 33.848C113.849 34.304 113.285 34.64 112.709 34.856C112.145 35.072 111.515 35.18 110.819 35.18C110.183 35.18 109.583 35.06 109.019 34.82C108.455 34.58 107.969 34.25 107.561 33.83C107.153 33.41 106.829 32.912 106.589 32.336C106.349 31.76 106.229 31.148 106.229 30.5C106.229 29.84 106.337 29.228 106.553 28.664C106.781 28.088 107.087 27.596 107.471 27.188C107.867 26.768 108.335 26.438 108.875 26.198C109.415 25.958 109.997 25.838 110.621 25.838C111.233 25.838 111.797 25.958 112.313 26.198C112.841 26.426 113.291 26.744 113.663 27.152C114.047 27.56 114.347 28.052 114.563 28.628C114.779 29.192 114.887 29.81 114.887 30.482V30.986H108.227C108.323 31.694 108.623 32.282 109.127 32.75C109.643 33.218 110.243 33.452 110.927 33.452C111.347 33.452 111.743 33.38 112.115 33.236C112.499 33.08 112.817 32.87 113.069 32.606L114.401 33.848ZM110.603 27.494C110.003 27.494 109.493 27.698 109.073 28.106C108.653 28.514 108.383 29.06 108.263 29.744H112.961C112.841 29.084 112.565 28.544 112.133 28.124C111.713 27.704 111.203 27.494 110.603 27.494ZM125.853 30.5C125.853 31.136 125.745 31.736 125.529 32.3C125.313 32.864 125.013 33.35 124.629 33.758C124.245 34.166 123.795 34.49 123.279 34.73C122.763 34.97 122.211 35.09 121.623 35.09C121.095 35.09 120.597 34.982 120.129 34.766C119.673 34.55 119.283 34.238 118.959 33.83V35H116.961V22.13L118.995 21.788V27.188C119.307 26.792 119.703 26.48 120.183 26.252C120.675 26.024 121.203 25.91 121.767 25.91C122.331 25.91 122.865 26.03 123.369 26.27C123.873 26.51 124.305 26.84 124.665 27.26C125.037 27.668 125.325 28.154 125.529 28.718C125.745 29.27 125.853 29.864 125.853 30.5ZM121.155 27.62C120.711 27.62 120.303 27.704 119.931 27.872C119.571 28.04 119.259 28.292 118.995 28.628V32.39C119.259 32.702 119.577 32.948 119.949 33.128C120.321 33.296 120.723 33.38 121.155 33.38C121.923 33.38 122.559 33.11 123.063 32.57C123.579 32.018 123.837 31.328 123.837 30.5C123.837 29.684 123.579 29 123.063 28.448C122.547 27.896 121.911 27.62 121.155 27.62Z" fill="#747272"/>
<path d="M53.468 13.8H55.544C55.748 13.8 55.936 13.83 56.108 13.89C56.28 13.946 56.426 14.024 56.546 14.124C56.67 14.224 56.766 14.346 56.834 14.49C56.906 14.63 56.942 14.782 56.942 14.946C56.942 15.142 56.886 15.32 56.774 15.48C56.662 15.636 56.514 15.762 56.33 15.858C56.546 15.946 56.722 16.076 56.858 16.248C56.994 16.416 57.062 16.608 57.062 16.824C57.062 16.996 57.026 17.154 56.954 17.298C56.886 17.442 56.788 17.566 56.66 17.67C56.536 17.774 56.386 17.856 56.21 17.916C56.038 17.972 55.848 18 55.64 18H53.468V13.8ZM55.424 14.622H54.5V15.486H55.424C55.568 15.486 55.684 15.446 55.772 15.366C55.86 15.286 55.904 15.182 55.904 15.054C55.904 14.922 55.86 14.818 55.772 14.742C55.688 14.662 55.572 14.622 55.424 14.622ZM55.508 17.178C55.664 17.178 55.788 17.136 55.88 17.052C55.972 16.968 56.018 16.856 56.018 16.716C56.018 16.576 55.972 16.464 55.88 16.38C55.788 16.296 55.664 16.254 55.508 16.254H54.5V17.178H55.508ZM58.4391 18V13.8H59.4711V17.118H61.5531V18H58.4391ZM62.5323 18L64.1703 13.8H65.3463L66.9603 18H65.8443L65.4963 16.998H63.9603L63.6063 18H62.5323ZM64.2423 16.2H65.2203L64.7343 14.808L64.2423 16.2ZM69.8825 17.136C70.0705 17.136 70.2445 17.092 70.4045 17.004C70.5645 16.916 70.7105 16.786 70.8425 16.614L71.5205 17.256C71.3365 17.496 71.0925 17.69 70.7885 17.838C70.4845 17.986 70.1705 18.06 69.8465 18.06C69.5345 18.06 69.2425 18.004 68.9705 17.892C68.6985 17.78 68.4645 17.628 68.2685 17.436C68.0725 17.244 67.9165 17.016 67.8005 16.752C67.6885 16.488 67.6325 16.204 67.6325 15.9C67.6325 15.596 67.6885 15.312 67.8005 15.048C67.9165 14.78 68.0725 14.55 68.2685 14.358C68.4685 14.166 68.7025 14.014 68.9705 13.902C69.2425 13.79 69.5345 13.734 69.8465 13.734C70.1825 13.734 70.5045 13.808 70.8125 13.956C71.1205 14.104 71.3665 14.302 71.5505 14.55L70.8545 15.21C70.7185 15.026 70.5645 14.888 70.3925 14.796C70.2245 14.7 70.0425 14.652 69.8465 14.652C69.6825 14.652 69.5305 14.684 69.3905 14.748C69.2505 14.812 69.1285 14.9 69.0245 15.012C68.9245 15.12 68.8445 15.252 68.7845 15.408C68.7285 15.56 68.7005 15.724 68.7005 15.9C68.7005 16.076 68.7305 16.24 68.7905 16.392C68.8505 16.544 68.9325 16.676 69.0365 16.788C69.1445 16.896 69.2705 16.982 69.4145 17.046C69.5585 17.106 69.7145 17.136 69.8825 17.136ZM72.7489 18V13.8H73.7809V15.624L75.3469 13.8H76.5769L74.7409 15.774L76.6849 18H75.3349L73.7809 16.092V18H72.7489ZM77.7785 13.8H79.8545C80.0585 13.8 80.2465 13.83 80.4185 13.89C80.5905 13.946 80.7365 14.024 80.8565 14.124C80.9805 14.224 81.0765 14.346 81.1445 14.49C81.2165 14.63 81.2525 14.782 81.2525 14.946C81.2525 15.142 81.1965 15.32 81.0845 15.48C80.9725 15.636 80.8245 15.762 80.6405 15.858C80.8565 15.946 81.0325 16.076 81.1685 16.248C81.3045 16.416 81.3725 16.608 81.3725 16.824C81.3725 16.996 81.3365 17.154 81.2645 17.298C81.1965 17.442 81.0985 17.566 80.9705 17.67C80.8465 17.774 80.6965 17.856 80.5205 17.916C80.3485 17.972 80.1585 18 79.9505 18H77.7785V13.8ZM79.7345 14.622H78.8105V15.486H79.7345C79.8785 15.486 79.9945 15.446 80.0825 15.366C80.1705 15.286 80.2145 15.182 80.2145 15.054C80.2145 14.922 80.1705 14.818 80.0825 14.742C79.9985 14.662 79.8825 14.622 79.7345 14.622ZM79.8185 17.178C79.9745 17.178 80.0985 17.136 80.1905 17.052C80.2825 16.968 80.3285 16.856 80.3285 16.716C80.3285 16.576 80.2825 16.464 80.1905 16.38C80.0985 16.296 79.9745 16.254 79.8185 16.254H78.8105V17.178H79.8185ZM86.831 15.9C86.831 16.2 86.775 16.484 86.663 16.752C86.551 17.016 86.397 17.246 86.201 17.442C86.009 17.634 85.781 17.786 85.517 17.898C85.253 18.01 84.969 18.066 84.665 18.066C84.361 18.066 84.075 18.01 83.807 17.898C83.543 17.786 83.313 17.634 83.117 17.442C82.925 17.246 82.773 17.016 82.661 16.752C82.549 16.484 82.493 16.2 82.493 15.9C82.493 15.6 82.549 15.318 82.661 15.054C82.773 14.786 82.925 14.556 83.117 14.364C83.313 14.168 83.543 14.014 83.807 13.902C84.075 13.79 84.361 13.734 84.665 13.734C84.969 13.734 85.253 13.79 85.517 13.902C85.781 14.014 86.009 14.168 86.201 14.364C86.397 14.556 86.551 14.786 86.663 15.054C86.775 15.318 86.831 15.6 86.831 15.9ZM85.763 15.9C85.763 15.724 85.735 15.56 85.679 15.408C85.623 15.252 85.545 15.12 85.445 15.012C85.349 14.9 85.233 14.812 85.097 14.748C84.961 14.684 84.815 14.652 84.659 14.652C84.503 14.652 84.357 14.684 84.221 14.748C84.085 14.812 83.967 14.9 83.867 15.012C83.771 15.12 83.695 15.252 83.639 15.408C83.583 15.56 83.555 15.724 83.555 15.9C83.555 16.076 83.583 16.242 83.639 16.398C83.695 16.55 83.771 16.682 83.867 16.794C83.967 16.902 84.085 16.988 84.221 17.052C84.357 17.116 84.503 17.148 84.659 17.148C84.815 17.148 84.961 17.116 85.097 17.052C85.233 16.988 85.349 16.902 85.445 16.794C85.545 16.682 85.623 16.55 85.679 16.398C85.735 16.242 85.763 16.076 85.763 15.9ZM88.5885 18H87.4065L89.0085 15.834L87.4785 13.8H88.7085L89.6085 15.072L90.5085 13.8H91.6905L90.1905 15.834L91.8165 18H90.5865L89.5905 16.584L88.5885 18ZM98.9787 15.9C98.9787 16.2 98.9227 16.484 98.8107 16.752C98.6987 17.016 98.5447 17.246 98.3487 17.442C98.1567 17.634 97.9287 17.786 97.6647 17.898C97.4007 18.01 97.1167 18.066 96.8127 18.066C96.5087 18.066 96.2227 18.01 95.9547 17.898C95.6907 17.786 95.4607 17.634 95.2647 17.442C95.0727 17.246 94.9207 17.016 94.8087 16.752C94.6967 16.484 94.6407 16.2 94.6407 15.9C94.6407 15.6 94.6967 15.318 94.8087 15.054C94.9207 14.786 95.0727 14.556 95.2647 14.364C95.4607 14.168 95.6907 14.014 95.9547 13.902C96.2227 13.79 96.5087 13.734 96.8127 13.734C97.1167 13.734 97.4007 13.79 97.6647 13.902C97.9287 14.014 98.1567 14.168 98.3487 14.364C98.5447 14.556 98.6987 14.786 98.8107 15.054C98.9227 15.318 98.9787 15.6 98.9787 15.9ZM97.9107 15.9C97.9107 15.724 97.8827 15.56 97.8267 15.408C97.7707 15.252 97.6927 15.12 97.5927 15.012C97.4967 14.9 97.3807 14.812 97.2447 14.748C97.1087 14.684 96.9627 14.652 96.8067 14.652C96.6507 14.652 96.5047 14.684 96.3687 14.748C96.2327 14.812 96.1147 14.9 96.0147 15.012C95.9187 15.12 95.8427 15.252 95.7867 15.408C95.7307 15.56 95.7027 15.724 95.7027 15.9C95.7027 16.076 95.7307 16.242 95.7867 16.398C95.8427 16.55 95.9187 16.682 96.0147 16.794C96.1147 16.902 96.2327 16.988 96.3687 17.052C96.5047 17.116 96.6507 17.148 96.8067 17.148C96.9627 17.148 97.1087 17.116 97.2447 17.052C97.3807 16.988 97.4967 16.902 97.5927 16.794C97.6927 16.682 97.7707 16.55 97.8267 16.398C97.8827 16.242 97.9107 16.076 97.9107 15.9ZM100.32 13.8H101.292L103.158 16.344L103.14 13.8H104.112V18H103.2L101.274 15.372L101.292 18H100.32V13.8ZM109.277 18H108.185L107.249 13.8H108.311L108.821 16.404L109.553 13.8H110.519L111.251 16.404L111.761 13.8H112.787L111.851 18H110.759L110.021 15.294L109.277 18ZM114.038 18V13.8H117.212V14.664H115.07V15.462H116.582V16.302H115.07V17.136H117.236V18H114.038ZM118.645 13.8H120.721C120.925 13.8 121.113 13.83 121.285 13.89C121.457 13.946 121.603 14.024 121.723 14.124C121.847 14.224 121.943 14.346 122.011 14.49C122.083 14.63 122.119 14.782 122.119 14.946C122.119 15.142 122.063 15.32 121.951 15.48C121.839 15.636 121.691 15.762 121.507 15.858C121.723 15.946 121.899 16.076 122.035 16.248C122.171 16.416 122.239 16.608 122.239 16.824C122.239 16.996 122.203 17.154 122.131 17.298C122.063 17.442 121.965 17.566 121.837 17.67C121.713 17.774 121.563 17.856 121.387 17.916C121.215 17.972 121.025 18 120.817 18H118.645V13.8ZM120.601 14.622H119.677V15.486H120.601C120.745 15.486 120.861 15.446 120.949 15.366C121.037 15.286 121.081 15.182 121.081 15.054C121.081 14.922 121.037 14.818 120.949 14.742C120.865 14.662 120.749 14.622 120.601 14.622ZM120.685 17.178C120.841 17.178 120.965 17.136 121.057 17.052C121.149 16.968 121.195 16.856 121.195 16.716C121.195 16.576 121.149 16.464 121.057 16.38C120.965 16.296 120.841 16.254 120.685 16.254H119.677V17.178H120.685Z" fill="#747272"/>
<path fill-rule="evenodd" clip-rule="evenodd" d="M29.0625 12.125C32.7258 12.125 36.2391 13.5802 38.8294 16.1706C41.4198 18.7609 42.875 22.2742 42.875 25.9375C42.875 29.6008 41.4198 33.1141 38.8294 35.7044C36.2391 38.2948 32.7258 39.75 29.0625 39.75C25.3992 39.75 21.8859 38.2948 19.2956 35.7044C16.7052 33.1141 15.25 29.6008 15.25 25.9375C15.25 22.2742 16.7052 18.7609 19.2956 16.1706C21.8859 13.5802 25.3992 12.125 29.0625 12.125ZM39.4622 20.625C38.0994 17.9751 35.7802 15.9424 32.9746 14.9385C33.9181 16.7235 34.6003 18.636 34.9998 20.625H39.4622ZM40.699 26.9894C40.733 26.6398 40.75 26.2887 40.75 25.9375C40.7479 24.8591 40.5955 23.7863 40.2974 22.75H35.3206C35.3886 23.4534 35.4375 24.161 35.4375 24.875C35.4331 26.3027 35.2865 27.7264 34.9998 29.125H40.2974C40.4992 28.4259 40.6331 27.7119 40.7011 26.9894H40.699ZM33.1871 26.9894L33.1999 26.881C33.2724 26.2148 33.31 25.5452 33.3125 24.875C33.2982 24.1642 33.2443 23.4548 33.151 22.75H24.974C24.8799 23.4547 24.826 24.1642 24.8125 24.875C24.8177 26.3057 24.9838 27.7314 25.3076 29.125H32.8174C32.981 28.4195 33.1042 27.7076 33.1871 26.9894ZM32.7791 20.625C32.2785 18.3775 31.3749 16.2392 30.1123 14.3138C29.7638 14.284 29.4152 14.25 29.0625 14.25C28.8411 14.2511 28.6199 14.2617 28.3995 14.2819L28.0127 14.3138L28 14.335C26.744 16.2549 25.8448 18.3857 25.3459 20.625H32.7791ZM23.1252 20.625C23.5329 18.6374 24.2242 16.7187 25.178 14.9279C22.3602 15.9283 20.0301 17.9658 18.6627 20.625H23.1252ZM17.8276 22.75C17.5299 23.7864 17.3776 24.8592 17.375 25.9375C17.3776 27.0158 17.5299 28.0886 17.8276 29.125H23.1252C22.8372 27.7266 22.6905 26.3028 22.6875 24.875C22.6875 24.161 22.7364 23.4534 22.8044 22.75H17.8276ZM23.6799 31.25H18.6649C19.4682 32.8191 20.615 34.1867 22.0201 35.2511C23.4252 36.3155 25.0523 37.0492 26.7803 37.3976C25.4202 35.5301 24.3731 33.4538 23.6799 31.25ZM29.0625 36.8685C30.4213 35.1879 31.4835 33.2878 32.2032 31.25H25.9218C26.6416 33.2878 27.7037 35.1879 29.0625 36.8685ZM34.4451 31.25C33.7519 33.4538 32.7047 35.5301 31.3448 37.3976C33.0726 37.0489 34.6996 36.3151 36.1046 35.2507C37.5096 34.1864 38.6566 32.8189 39.4601 31.25H34.4451Z" fill="#747272"/>
</g>
</svg>
