<svg width="182" height="71" viewBox="0 0 182 71" fill="none" xmlns="http://www.w3.org/2000/svg">
<path d="M175.259 14.08C178.36 14.08 180.921 16.645 180.921 19.75V60.25C180.921 63.355 178.36 65.92 175.259 65.92H6.74074C3.64 65.92 1.07852 63.355 1.07852 60.25V19.75C1.07852 16.645 3.64 14.08 6.74074 14.08H175.259ZM175.259 13H6.74074C2.96593 13 0 16.105 0 19.75V60.25C0 64.03 2.96593 67 6.74074 67H175.259C179.034 67 182 64.03 182 60.25V19.75C182 16.105 179.034 13 175.259 13Z" fill="#747272"/>
<path d="M64.0412 26.7903C64.0412 27.9516 63.7732 28.9677 63.1031 29.6935C62.299 30.5645 61.3608 31 60.1546 31C58.9485 31 58.0103 30.5645 57.2062 29.6935C56.4021 28.8226 56 27.8065 56 26.5C56 25.1935 56.4021 24.1774 57.2062 23.3065C58.0103 22.4355 58.9485 22 60.1546 22C60.6907 22 61.2268 22.1452 61.7629 22.4355C62.299 22.7258 62.701 23.0161 62.9691 23.4516L62.299 24.1774C61.7629 23.4516 61.0928 23.1613 60.1546 23.1613C59.3505 23.1613 58.5464 23.4516 58.0103 24.1774C57.3402 24.7581 57.0722 25.629 57.0722 26.6452C57.0722 27.6613 57.3402 28.5323 58.0103 29.1129C58.6804 29.6935 59.3505 30.129 60.1546 30.129C61.0928 30.129 61.7629 29.8387 62.433 29.1129C62.8351 28.6774 63.1031 28.0968 63.1031 27.371H60.1546V26.2097H64.0412V26.7903ZM70.2062 23.1613H66.5876V25.9194H69.9381V26.9355H66.5876V29.6935H70.2062V30.8548H65.5155V22.1452H70.2062V23.1613ZM74.6289 30.8548H73.5567V23.1613H71.2783V22.1452H76.9072V23.1613H74.6289V30.8548ZM80.7938 30.8548V22.1452H81.866V30.8548H80.7938ZM86.4227 30.8548H85.3505V23.1613H83.0722V22.1452H88.567V23.1613H86.2887V30.8548H86.4227ZM99.1546 29.6935C98.3505 30.5645 97.4124 31 96.2062 31C95 31 94.0619 30.5645 93.2577 29.6935C92.4536 28.8226 92.0516 27.8065 92.0516 26.5C92.0516 25.1935 92.4536 24.1774 93.2577 23.3065C94.0619 22.4355 95 22 96.2062 22C97.4124 22 98.3505 22.4355 99.1546 23.3065C99.9588 24.1774 100.361 25.1935 100.361 26.5C100.361 27.8065 99.9588 28.8226 99.1546 29.6935ZM94.0619 28.9677C94.5979 29.5484 95.4021 29.9839 96.2062 29.9839C97.0103 29.9839 97.8144 29.6935 98.3505 28.9677C98.8866 28.3871 99.2887 27.5161 99.2887 26.5C99.2887 25.4839 99.0206 24.6129 98.3505 24.0323C97.8144 23.4516 97.0103 23.0161 96.2062 23.0161C95.4021 23.0161 94.5979 23.3065 94.0619 24.0323C93.5258 24.6129 93.1237 25.4839 93.1237 26.5C93.1237 27.5161 93.3918 28.3871 94.0619 28.9677ZM101.835 30.8548V22.1452H103.041L106.928 28.9677V22.1452H108V30.8548H106.928L102.773 23.7419V30.8548H101.835Z" fill="#747272" stroke="#747272" stroke-miterlimit="10"/>
<path d="M91.7021 42.3964C88.4397 42.3964 85.857 44.8462 85.857 48.2485C85.857 51.5148 88.4397 54.1006 91.7021 54.1006C94.9645 54.1006 97.5473 51.6509 97.5473 48.2485C97.5473 44.7101 94.9645 42.3964 91.7021 42.3964ZM91.7021 51.6509C89.935 51.6509 88.4397 50.1538 88.4397 48.1124C88.4397 46.071 89.935 44.574 91.7021 44.574C93.4693 44.574 94.9645 45.9349 94.9645 48.1124C94.9645 50.1538 93.4693 51.6509 91.7021 51.6509ZM79.0603 42.3964C75.7979 42.3964 73.2151 44.8462 73.2151 48.2485C73.2151 51.5148 75.7979 54.1006 79.0603 54.1006C82.3227 54.1006 84.9054 51.6509 84.9054 48.2485C84.9054 44.7101 82.3227 42.3964 79.0603 42.3964ZM79.0603 51.6509C77.2931 51.6509 75.7979 50.1538 75.7979 48.1124C75.7979 46.071 77.2931 44.574 79.0603 44.574C80.8274 44.574 82.3227 45.9349 82.3227 48.1124C82.3227 50.1538 80.8274 51.6509 79.0603 51.6509ZM63.9716 44.1657V46.6154H69.8168C69.6809 47.9763 69.1371 49.0651 68.4574 49.7456C67.6418 50.5621 66.2825 51.5148 63.9716 51.5148C60.3014 51.5148 57.5827 48.6568 57.5827 44.9822C57.5827 41.3077 60.4374 38.4497 63.9716 38.4497C65.8747 38.4497 67.37 39.2663 68.4574 40.2189L70.2246 38.4497C68.7293 37.0888 66.8262 36 64.1076 36C59.2139 36 55 40.0828 55 44.9822C55 49.8817 59.2139 53.9645 64.1076 53.9645C66.8262 53.9645 68.7293 53.1479 70.3605 51.3787C71.9917 49.7456 72.5355 47.432 72.5355 45.6627C72.5355 45.1183 72.5355 44.574 72.3995 44.1657H63.9716ZM125.686 46.071C125.142 44.7101 123.783 42.3964 120.792 42.3964C117.801 42.3964 115.355 44.7101 115.355 48.2485C115.355 51.5148 117.801 54.1006 121.064 54.1006C123.647 54.1006 125.278 52.4675 125.822 51.5148L123.918 50.1538C123.239 51.1065 122.423 51.787 121.064 51.787C119.704 51.787 118.889 51.2426 118.209 50.0178L125.957 46.7515L125.686 46.071ZM117.801 47.9763C117.801 45.7988 119.569 44.574 120.792 44.574C121.743 44.574 122.695 45.1183 122.967 45.7988L117.801 47.9763ZM111.413 53.5562H113.995V36.5444H111.413V53.5562ZM107.335 43.6213C106.655 42.9408 105.567 42.2604 104.208 42.2604C101.353 42.2604 98.6348 44.8462 98.6348 48.1124C98.6348 51.3787 101.217 53.8284 104.208 53.8284C105.567 53.8284 106.655 53.1479 107.199 52.4675H107.335V53.284C107.335 55.4615 106.111 56.6864 104.208 56.6864C102.713 56.6864 101.625 55.5976 101.353 54.645L99.1785 55.5976C99.8582 57.0947 101.489 59 104.344 59C107.335 59 109.781 57.2308 109.781 53.0118V42.6686H107.335V43.6213ZM104.344 51.6509C102.577 51.6509 101.082 50.1538 101.082 48.1124C101.082 46.071 102.577 44.574 104.344 44.574C106.111 44.574 107.47 46.071 107.47 48.1124C107.47 50.1538 106.111 51.6509 104.344 51.6509ZM137.512 36.5444H131.395V53.5562H133.978V47.1598H137.512C140.366 47.1598 143.085 45.1183 143.085 41.8521C143.085 38.5858 140.366 36.5444 137.512 36.5444ZM137.648 44.7101H133.978V38.858H137.648C139.551 38.858 140.638 40.4911 140.638 41.716C140.502 43.213 139.415 44.7101 137.648 44.7101ZM153.28 42.2604C151.377 42.2604 149.474 43.0769 148.794 44.8462L151.105 45.7988C151.649 44.8462 152.465 44.574 153.416 44.574C154.775 44.574 155.999 45.3905 156.135 46.7515V46.8876C155.727 46.6154 154.639 46.2071 153.552 46.2071C151.105 46.2071 148.658 47.568 148.658 50.0178C148.658 52.3314 150.697 53.8284 152.872 53.8284C154.639 53.8284 155.455 53.0118 156.135 52.1953H156.271V53.5562H158.717V47.0237C158.446 44.0296 156.135 42.2604 153.28 42.2604ZM153.008 51.6509C152.193 51.6509 150.969 51.2426 150.969 50.1538C150.969 48.7929 152.465 48.3846 153.688 48.3846C154.775 48.3846 155.319 48.6568 155.999 48.929C155.727 50.5621 154.368 51.6509 153.008 51.6509ZM167.281 42.6686L164.427 50.0178H164.291L161.3 42.6686H158.582L163.067 53.0118L160.485 58.7278H163.067L170 42.6686H167.281ZM144.444 53.5562H147.027V36.5444H144.444V53.5562Z" fill="#747272"/>
<g style="mix-blend-mode:luminosity">
<path d="M14.5231 23C14.1308 23.408 14 24.088 14 24.904V54.96C14 55.776 14.2615 56.456 14.6538 56.864L14.7846 57L31 40.136V39.864L14.5231 23Z" fill="url(#paint0_linear)"/>
</g>
<g style="mix-blend-mode:luminosity">
<path d="M36.6552 46L31 40.6941V40.3059L36.6552 35L36.7931 35.1294L43.5517 38.7529C45.4828 39.7882 45.4828 41.4706 43.5517 42.5059L36.6552 46Z" fill="url(#paint1_linear)"/>
</g>
<g style="mix-blend-mode:luminosity" opacity="0.12">
<path d="M14.5391 56.8629C14.1348 56.4516 14 55.7661 14 54.9435V55.0806C14 55.9032 14.2696 56.5887 14.6739 57V56.8629H14.5391ZM43.6522 41.7823L36.913 45.621L37.0478 45.7581L43.6522 41.9194C44.5957 41.371 45 40.6855 45 40C45 40.6855 44.4609 41.2339 43.6522 41.7823Z" fill="black"/>
</g>
<g style="mix-blend-mode:luminosity">
<path d="M37 45.8657L31.2156 40L14 57.4574C14.6886 58.1557 15.6527 58.1557 16.8922 57.597L37 45.8657Z" fill="url(#paint2_linear)"/>
</g>
<g style="mix-blend-mode:luminosity">
<path d="M37 34.107L16.8922 22.4612C15.6527 21.7597 14.6886 21.9 14 22.6015L31.2156 40L37 34.107Z" fill="url(#paint3_linear)"/>
</g>
<g style="mix-blend-mode:luminosity" opacity="0.2">
<path d="M37 45L16.9096 57.1988C15.8012 57.9427 14.8313 57.7939 14.1386 57.1988L14 57.3476L14.1386 57.4964C14.8313 58.0914 15.8012 58.2402 16.9096 57.4964L37 45Z" fill="black"/>
</g>
<g style="mix-blend-mode:luminosity" opacity="0.25">
<path d="M17.3696 22.6341L43.6522 38.1794C44.4609 38.7396 45 39.2998 45 40C45 39.2998 44.5957 38.5995 43.6522 38.0393L17.3696 22.4941C15.4826 21.3737 14 22.214 14 24.4548V24.5948C14 22.4941 15.4826 21.5138 17.3696 22.6341Z" fill="white"/>
</g>
<defs>
<linearGradient id="paint0_linear" x1="29.4308" y1="24.6456" x2="6.62349" y2="46.5744" gradientUnits="userSpaceOnUse">
<stop stop-color="#00A0FF"/>
<stop offset="0.007" stop-color="#00A1FF"/>
<stop offset="0.26" stop-color="#00BEFF"/>
<stop offset="0.512" stop-color="#00D2FF"/>
<stop offset="0.76" stop-color="#00DFFF"/>
<stop offset="1" stop-color="#00E3FF"/>
</linearGradient>
<linearGradient id="paint1_linear" x1="46.0814" y1="40.4366" x2="12.7062" y2="40.4366" gradientUnits="userSpaceOnUse">
<stop stop-color="#FFE000"/>
<stop offset="0.409" stop-color="#FFBD00"/>
<stop offset="0.775" stop-color="#FFA500"/>
<stop offset="1" stop-color="#FF9C00"/>
</linearGradient>
<linearGradient id="paint2_linear" x1="33.8695" y1="43.2066" x2="2.08904" y2="74.5469" gradientUnits="userSpaceOnUse">
<stop stop-color="#FF3A44"/>
<stop offset="1" stop-color="#C31162"/>
</linearGradient>
<linearGradient id="paint3_linear" x1="9.72641" y1="12.1849" x2="23.9837" y2="26.1794" gradientUnits="userSpaceOnUse">
<stop stop-color="#32A071"/>
<stop offset="0.069" stop-color="#2DA771"/>
<stop offset="0.476" stop-color="#15CF74"/>
<stop offset="0.801" stop-color="#06E775"/>
<stop offset="1" stop-color="#00F076"/>
</linearGradient>
</defs>
</svg>
